<svg width="28" height="28" viewBox="0 0 28 28" fill="none" xmlns="http://www.w3.org/2000/svg">
<path d="M18.8483 4.99994H9.6909C9.6909 4.99994 8.5455 4.99994 8.5455 6.14994H19.9937C19.9937 4.99994 18.8483 4.99994 18.8483 4.99994ZM22.2834 8.44994C22.2834 7.29994 21.1391 7.29994 21.1391 7.29994H7.40125C7.40125 7.29994 6.257 7.29994 6.257 8.44994V9.59994H22.2834V8.44994ZM24.5719 9.59994L23.8957 8.91914V10.7499H4.6447V8.91914L3.96735 9.59994C3.29 10.2807 2.8047 10.4624 3.07725 11.8999C3.34865 13.3328 4.6631 21.1873 4.8586 22.2499C5.0725 23.416 6.25815 23.3999 6.25815 23.3999H22.2845C22.2845 23.3999 23.469 23.416 23.6841 22.2499C23.8796 21.1873 25.1929 13.3328 25.4654 11.8999C25.7357 10.4624 25.2504 10.2807 24.5719 9.59994ZM18.8702 16.4965C18.8702 17.1336 18.3538 17.6499 17.7167 17.6499H10.8236C10.5177 17.6499 10.2243 17.5284 10.008 17.3121C9.79172 17.0958 9.6702 16.8024 9.6702 16.4965V14.1999H10.8202V16.4999H17.7202V14.1999H18.8702V16.4965Z" fill="#B3BEC2"/>
</svg>
