<svg width="20" height="20" viewBox="0 0 20 20" fill="none" xmlns="http://www.w3.org/2000/svg">
<path d="M10 1.66669C5.40002 1.66669 1.66669 5.40002 1.66669 10C1.66669 14.6 5.40002 18.3334 10 18.3334C14.6 18.3334 18.3334 14.6 18.3334 10C18.3334 5.40002 14.6 1.66669 10 1.66669ZM10 16.6667C6.32502 16.6667 3.33335 13.675 3.33335 10C3.33335 6.32502 6.32502 3.33335 10 3.33335C13.675 3.33335 16.6667 6.32502 16.6667 10C16.6667 13.675 13.675 16.6667 10 16.6667ZM13.825 6.31669L8.33335 11.8084L6.17502 9.65835L5.00002 10.8334L8.33335 14.1667L15 7.50002L13.825 6.31669Z" fill="white"/>
</svg>
