<svg width="28" height="28" viewBox="0 0 28 28" fill="none" xmlns="http://www.w3.org/2000/svg">
<g clip-path="url(#clip0_16_1001)">
<path d="M19.978 9.61799L14 4.39599L8.022 9.61799L7 8.59599L14 2.46399L21 8.59599L19.978 9.61799ZM19.6 11.788L13.93 16.59L8.4 11.732V10.696L14 5.79599L19.6 10.696V11.788ZM15.4 13.58V11.2H12.6V13.58H15.4ZM12.978 19.222L7 14L1.022 19.222L0 18.2L7 12.068L14 18.2L12.978 19.222ZM26.978 19.222L21 14L15.022 19.222L14 18.2L21 12.068L28 18.2L26.978 19.222ZM7 15.4L12.6 20.3V25.2H1.4V20.3L7 15.4ZM21 15.4L26.6 20.3V25.2H15.4V20.3L21 15.4ZM8.4 23.8V21H5.6V23.8H8.4ZM22.4 23.8V21H19.6V23.8H22.4Z" fill="#B3BEC2"/>
</g>
<defs>
<clipPath id="clip0_16_1001">
<rect width="28" height="28" fill="white"/>
</clipPath>
</defs>
</svg>
