<svg width="28" height="28" viewBox="0 0 28 28" fill="none" xmlns="http://www.w3.org/2000/svg">
<path d="M11.9 2.79999C11.4656 2.79976 11.0417 2.93429 10.6869 3.18503C10.3322 3.43577 10.0639 3.79038 9.91904 4.19999H7.70004C7.14308 4.19999 6.60894 4.42124 6.21511 4.81506C5.82129 5.20889 5.60004 5.74303 5.60004 6.29999V23.1C5.60004 23.6569 5.82129 24.1911 6.21511 24.5849C6.60894 24.9787 7.14308 25.2 7.70004 25.2H20.3C20.857 25.2 21.3911 24.9787 21.785 24.5849C22.1788 24.1911 22.4 23.6569 22.4 23.1V6.29999C22.4 5.74303 22.1788 5.20889 21.785 4.81506C21.3911 4.42124 20.857 4.19999 20.3 4.19999H18.081C17.9362 3.79038 17.6679 3.43577 17.3131 3.18503C16.9583 2.93429 16.5345 2.79976 16.1 2.79999H11.9ZM11.2 4.89999C11.2 4.71434 11.2738 4.53629 11.4051 4.40501C11.5363 4.27374 11.7144 4.19999 11.9 4.19999H16.1C16.2857 4.19999 16.4637 4.27374 16.595 4.40501C16.7263 4.53629 16.8 4.71434 16.8 4.89999C16.8 5.08564 16.7263 5.26369 16.595 5.39496C16.4637 5.52624 16.2857 5.59999 16.1 5.59999H11.9C11.7144 5.59999 11.5363 5.52624 11.4051 5.39496C11.2738 5.26369 11.2 5.08564 11.2 4.89999ZM13.0956 10.9956L10.6456 13.4456C10.5181 13.573 10.3464 13.6462 10.1661 13.6502C9.98594 13.6541 9.81118 13.5883 9.67824 13.4666L8.62824 12.5076C8.55689 12.4466 8.49853 12.3719 8.45664 12.2879C8.41475 12.2039 8.39017 12.1123 8.38438 12.0187C8.37859 11.925 8.3917 11.8311 8.42293 11.7426C8.45416 11.6541 8.50287 11.5727 8.56617 11.5034C8.62947 11.4341 8.70606 11.3782 8.79138 11.3391C8.87671 11.3 8.96903 11.2785 9.06285 11.2758C9.15667 11.2731 9.25008 11.2892 9.33752 11.3234C9.42496 11.3575 9.50465 11.4088 9.57184 11.4744L10.1276 11.9812L12.1044 10.0044C12.1695 9.9393 12.2468 9.88768 12.3318 9.85246C12.4169 9.81723 12.508 9.7991 12.6 9.7991C12.6921 9.7991 12.7832 9.81723 12.8683 9.85246C12.9533 9.88768 13.0306 9.9393 13.0956 10.0044C13.1607 10.0695 13.2123 10.1467 13.2476 10.2318C13.2828 10.3168 13.3009 10.4079 13.3009 10.5C13.3009 10.592 13.2828 10.6832 13.2476 10.7682C13.2123 10.8532 13.1607 10.9305 13.0956 10.9956ZM13.0956 17.0044C13.1608 17.0694 13.2125 17.1467 13.2478 17.2317C13.2831 17.3167 13.3013 17.4079 13.3013 17.5C13.3013 17.5921 13.2831 17.6832 13.2478 17.7683C13.2125 17.8533 13.1608 17.9306 13.0956 17.9956L10.6456 20.4456C10.5181 20.573 10.3464 20.6462 10.1661 20.6502C9.98594 20.6541 9.81118 20.5883 9.67824 20.4666L8.62824 19.5076C8.49819 19.3807 8.42256 19.2083 8.41732 19.0267C8.41207 18.8451 8.47763 18.6686 8.60014 18.5344C8.72265 18.4003 8.89252 18.319 9.07384 18.3078C9.25516 18.2966 9.43374 18.3564 9.57184 18.4744L10.1276 18.9826L12.1044 17.0044C12.1695 16.9392 12.2467 16.8875 12.3318 16.8522C12.4168 16.8169 12.508 16.7987 12.6 16.7987C12.6921 16.7987 12.7833 16.8169 12.8683 16.8522C12.9534 16.8875 13.0306 16.9392 13.0956 17.0044ZM15.4 18.2H18.9C19.0857 18.2 19.2637 18.2737 19.395 18.405C19.5263 18.5363 19.6 18.7143 19.6 18.9C19.6 19.0856 19.5263 19.2637 19.395 19.395C19.2637 19.5262 19.0857 19.6 18.9 19.6H15.4C15.2144 19.6 15.0363 19.5262 14.9051 19.395C14.7738 19.2637 14.7 19.0856 14.7 18.9C14.7 18.7143 14.7738 18.5363 14.9051 18.405C15.0363 18.2737 15.2144 18.2 15.4 18.2ZM14.7 11.9C14.7 11.7143 14.7738 11.5363 14.9051 11.405C15.0363 11.2737 15.2144 11.2 15.4 11.2H18.9C19.0857 11.2 19.2637 11.2737 19.395 11.405C19.5263 11.5363 19.6 11.7143 19.6 11.9C19.6 12.0856 19.5263 12.2637 19.395 12.395C19.2637 12.5262 19.0857 12.6 18.9 12.6H15.4C15.2144 12.6 15.0363 12.5262 14.9051 12.395C14.7738 12.2637 14.7 12.0856 14.7 11.9Z" fill="white"/>
</svg>
