<svg width="16" height="16" viewBox="0 0 16 16" fill="none" xmlns="http://www.w3.org/2000/svg">
<path d="M6.80001 1.59998C6.55175 1.59985 6.30956 1.67672 6.10682 1.82C5.90408 1.96328 5.75077 2.16591 5.66801 2.39998H4.40001C4.08175 2.39998 3.77653 2.5264 3.55148 2.75145C3.32644 2.97649 3.20001 3.28172 3.20001 3.59998V13.2C3.20001 13.5182 3.32644 13.8235 3.55148 14.0485C3.77653 14.2735 4.08175 14.4 4.40001 14.4H11.6C11.9183 14.4 12.2235 14.2735 12.4485 14.0485C12.6736 13.8235 12.8 13.5182 12.8 13.2V3.59998C12.8 3.28172 12.6736 2.97649 12.4485 2.75145C12.2235 2.5264 11.9183 2.39998 11.6 2.39998H10.332C10.2493 2.16591 10.0959 1.96328 9.8932 1.82C9.69046 1.67672 9.44827 1.59985 9.20001 1.59998H6.80001ZM6.40001 2.79998C6.40001 2.69389 6.44215 2.59215 6.51717 2.51713C6.59218 2.44212 6.69393 2.39998 6.80001 2.39998H9.20001C9.3061 2.39998 9.40784 2.44212 9.48286 2.51713C9.55787 2.59215 9.60001 2.69389 9.60001 2.79998C9.60001 2.90606 9.55787 3.0078 9.48286 3.08282C9.40784 3.15783 9.3061 3.19998 9.20001 3.19998H6.80001C6.69393 3.19998 6.59218 3.15783 6.51717 3.08282C6.44215 3.0078 6.40001 2.90606 6.40001 2.79998ZM7.48321 6.28318L6.08321 7.68318C6.01034 7.75596 5.91219 7.79783 5.80922 7.80007C5.70624 7.80231 5.60638 7.76473 5.53041 7.69518L4.93041 7.14718C4.88964 7.11233 4.85629 7.06963 4.83236 7.02164C4.80842 6.97364 4.79438 6.92132 4.79107 6.86779C4.78776 6.81425 4.79525 6.7606 4.8131 6.71002C4.83094 6.65944 4.85878 6.61297 4.89495 6.57337C4.93112 6.53376 4.97488 6.50184 5.02364 6.47949C5.0724 6.45714 5.12515 6.44483 5.17876 6.44328C5.23238 6.44173 5.28575 6.45098 5.33572 6.47048C5.38568 6.48998 5.43122 6.51932 5.46961 6.55678L5.78721 6.84638L6.91681 5.71678C6.954 5.67959 6.99815 5.65008 7.04675 5.62996C7.09534 5.60983 7.14742 5.59947 7.20001 5.59947C7.25261 5.59947 7.30469 5.60983 7.35328 5.62996C7.40187 5.65008 7.44602 5.67959 7.48321 5.71678C7.5204 5.75397 7.5499 5.79812 7.57003 5.84671C7.59016 5.8953 7.60052 5.94738 7.60052 5.99998C7.60052 6.05257 7.59016 6.10465 7.57003 6.15324C7.5499 6.20183 7.5204 6.24599 7.48321 6.28318V6.28318ZM7.48321 9.71678C7.52046 9.75393 7.55002 9.79807 7.57018 9.84667C7.59035 9.89527 7.60073 9.94736 7.60073 9.99998C7.60073 10.0526 7.59035 10.1047 7.57018 10.1533C7.55002 10.2019 7.52046 10.246 7.48321 10.2832L6.08321 11.6832C6.01034 11.756 5.91219 11.7978 5.80922 11.8001C5.70624 11.8023 5.60638 11.7647 5.53041 11.6952L4.93041 11.1472C4.8561 11.0747 4.81288 10.9762 4.80989 10.8724C4.80689 10.7686 4.84435 10.6677 4.91436 10.5911C4.98437 10.5144 5.08143 10.468 5.18504 10.4616C5.28866 10.4552 5.3907 10.4893 5.46961 10.5568L5.78721 10.8472L6.91681 9.71678C6.95397 9.67953 6.99811 9.64997 7.04671 9.62981C7.0953 9.60964 7.1474 9.59926 7.20001 9.59926C7.25263 9.59926 7.30472 9.60964 7.35332 9.62981C7.40191 9.64997 7.44606 9.67953 7.48321 9.71678V9.71678ZM8.80001 10.4H10.8C10.9061 10.4 11.0078 10.4421 11.0829 10.5171C11.1579 10.5921 11.2 10.6939 11.2 10.8C11.2 10.9061 11.1579 11.0078 11.0829 11.0828C11.0078 11.1578 10.9061 11.2 10.8 11.2H8.80001C8.69393 11.2 8.59218 11.1578 8.51717 11.0828C8.44215 11.0078 8.40001 10.9061 8.40001 10.8C8.40001 10.6939 8.44215 10.5921 8.51717 10.5171C8.59218 10.4421 8.69393 10.4 8.80001 10.4ZM8.40001 6.79998C8.40001 6.69389 8.44215 6.59215 8.51717 6.51713C8.59218 6.44212 8.69393 6.39998 8.80001 6.39998H10.8C10.9061 6.39998 11.0078 6.44212 11.0829 6.51713C11.1579 6.59215 11.2 6.69389 11.2 6.79998C11.2 6.90606 11.1579 7.0078 11.0829 7.08282C11.0078 7.15783 10.9061 7.19998 10.8 7.19998H8.80001C8.69393 7.19998 8.59218 7.15783 8.51717 7.08282C8.44215 7.0078 8.40001 6.90606 8.40001 6.79998Z" fill="#B3BEC2"/>
</svg>
