<svg width="28" height="28" viewBox="0 0 28 28" fill="none" xmlns="http://www.w3.org/2000/svg">
<path d="M23.625 4.375H4.375C3.91103 4.37552 3.46621 4.56006 3.13814 4.88814C2.81006 5.21621 2.62552 5.66103 2.625 6.125V21.8751C2.62501 22.1049 2.67029 22.3325 2.75825 22.5448C2.84621 22.7571 2.97513 22.95 3.13764 23.1125C3.30015 23.275 3.49308 23.4039 3.70541 23.4918C3.91773 23.5798 4.1453 23.625 4.37511 23.625L5.83964 23.6249C6.00509 23.6248 6.16715 23.5779 6.307 23.4895C6.44685 23.4011 6.55877 23.2748 6.62977 23.1254C7.05589 22.2276 7.72795 21.4691 8.5679 20.938C9.40785 20.407 10.3812 20.125 11.375 20.125C12.3688 20.125 13.3421 20.407 14.1821 20.938C15.0221 21.4691 15.6941 22.2276 16.1202 23.1254C16.1912 23.2748 16.3032 23.4011 16.443 23.4895C16.5829 23.5779 16.745 23.6249 16.9105 23.6249L23.625 23.625C24.089 23.6245 24.5338 23.4399 24.8619 23.1119C25.1899 22.7838 25.3745 22.339 25.375 21.875V6.125C25.3745 5.66103 25.1899 5.21621 24.8619 4.88814C24.5338 4.56006 24.089 4.37552 23.625 4.375ZM11.375 18.375C10.6828 18.375 10.0061 18.1697 9.4305 17.7851C8.85493 17.4006 8.40633 16.8539 8.14142 16.2144C7.87651 15.5749 7.8072 14.8711 7.94225 14.1922C8.0773 13.5133 8.41064 12.8896 8.90013 12.4001C9.38961 11.9106 10.0133 11.5773 10.6922 11.4423C11.3711 11.3072 12.0749 11.3765 12.7144 11.6414C13.3539 11.9063 13.9006 12.3549 14.2851 12.9305C14.6697 13.5061 14.875 14.1828 14.875 14.875C14.8739 15.8029 14.5048 16.6925 13.8487 17.3487C13.1925 18.0048 12.3029 18.3739 11.375 18.375ZM23.625 21.875L17.4381 21.8749C17.0564 21.2171 16.5699 20.6261 15.9978 20.125H21C21.2321 20.125 21.4546 20.0328 21.6187 19.8687C21.7828 19.7046 21.875 19.4821 21.875 19.25V8.75C21.875 8.51794 21.7828 8.29538 21.6187 8.13128C21.4546 7.96719 21.2321 7.875 21 7.875H7C6.76794 7.875 6.54538 7.96719 6.38128 8.13128C6.21719 8.29538 6.125 8.51794 6.125 8.75V19.25C6.12513 19.4444 6.19003 19.6332 6.30945 19.7866C6.42886 19.94 6.59599 20.0493 6.78442 20.0971C6.19845 20.604 5.70082 21.2049 5.31191 21.875H4.375V6.125H23.625V21.875Z" fill="#B3BEC2"/>
</svg>
