<svg width="28" height="28" viewBox="0 0 28 28" fill="none" xmlns="http://www.w3.org/2000/svg">
<path d="M24.7767 6.16987L14.2767 2.66987C14.0971 2.61004 13.9029 2.61004 13.7233 2.66987L3.24013 6.1644L3.23903 6.16473L3.22328 6.16998C3.22022 6.17107 3.21748 6.17271 3.21453 6.1738C3.1766 6.18683 3.13961 6.20247 3.10384 6.22062C3.0998 6.2228 3.09553 6.22445 3.09148 6.22663C3.05612 6.24552 3.02209 6.26683 2.98966 6.2904C2.98254 6.29554 2.9755 6.30079 2.96855 6.30615C2.93694 6.33003 2.90698 6.35601 2.87886 6.38391C2.87634 6.38665 2.87405 6.38949 2.87153 6.39212C2.84563 6.41909 2.82148 6.4477 2.79923 6.47776C2.79464 6.48388 2.78994 6.48979 2.78556 6.49602C2.7626 6.52848 2.74188 6.56247 2.72355 6.59774C2.7207 6.60321 2.7183 6.60868 2.71556 6.61415C2.69845 6.64875 2.68365 6.68445 2.67127 6.72101C2.67017 6.7244 2.66864 6.72768 2.66755 6.73118C2.65519 6.77001 2.64558 6.80967 2.63878 6.84985C2.63736 6.85827 2.63616 6.86669 2.63495 6.87501C2.62866 6.91639 2.62533 6.95817 2.625 7.00002V15.75C2.625 15.9821 2.71719 16.2046 2.88128 16.3687C3.04538 16.5328 3.26794 16.625 3.5 16.625C3.73206 16.625 3.95462 16.5328 4.11872 16.3687C4.28281 16.2046 4.375 15.9821 4.375 15.75V8.21409L8.04836 9.43854C7.07457 11.011 6.76297 12.905 7.1817 14.7065C7.60043 16.5081 8.71542 18.0705 10.2829 19.0523C8.19563 19.8415 6.41453 21.276 5.19859 23.1471C5.13427 23.2433 5.08967 23.3513 5.06739 23.4649C5.04511 23.5785 5.04559 23.6954 5.0688 23.8088C5.09201 23.9222 5.13749 24.0299 5.2026 24.1256C5.26772 24.2213 5.35117 24.3031 5.44814 24.3663C5.5451 24.4295 5.65364 24.4729 5.76748 24.4938C5.88132 24.5148 5.99818 24.513 6.11131 24.4885C6.22444 24.464 6.33158 24.4173 6.42652 24.3511C6.52147 24.2848 6.60234 24.2005 6.66444 24.1028C7.45937 22.8815 8.54663 21.8781 9.82759 21.1835C11.1085 20.4888 12.5427 20.125 13.9998 20.125C15.457 20.125 16.8911 20.4888 18.1721 21.1835C19.453 21.8781 20.5403 22.8815 21.3352 24.1028C21.3977 24.1997 21.4787 24.2833 21.5736 24.3488C21.6684 24.4143 21.7753 24.4604 21.8881 24.4845C22.0008 24.5085 22.1172 24.5101 22.2306 24.489C22.3439 24.4679 22.452 24.4247 22.5486 24.3617C22.6451 24.2988 22.7283 24.2173 22.7933 24.1221C22.8583 24.0269 22.9039 23.9198 22.9274 23.8069C22.9508 23.694 22.9518 23.5776 22.9301 23.4644C22.9085 23.3511 22.8647 23.2433 22.8012 23.1471C21.5853 21.276 19.8042 19.8416 17.717 19.0524C19.2845 18.0706 20.3995 16.5081 20.8182 14.7066C21.237 12.905 20.9254 11.011 19.9515 9.43854L24.7767 7.83018C24.951 7.77213 25.1026 7.66072 25.21 7.51172C25.3174 7.36272 25.3752 7.1837 25.3752 7.00002C25.3752 6.81634 25.3174 6.63732 25.21 6.48833C25.1026 6.33933 24.951 6.22791 24.7767 6.16987ZM14 18.375C13.029 18.3752 12.077 18.106 11.2499 17.5974C10.4227 17.0888 9.75288 16.3608 9.31478 15.4942C8.87669 14.6277 8.68753 13.6566 8.76834 12.689C8.84916 11.7214 9.19678 10.7952 9.77255 10.0133L13.7233 11.3302C13.9029 11.39 14.0971 11.39 14.2767 11.3302L18.2275 10.0133C18.8032 10.7952 19.1508 11.7214 19.2317 12.689C19.3125 13.6566 19.1233 14.6277 18.6852 15.4942C18.2471 16.3608 17.5773 17.0888 16.7501 17.5974C15.923 18.106 14.971 18.3752 14 18.375Z" fill="#B3BEC2"/>
</svg>
