<svg width="335" height="403" viewBox="0 0 335 403" fill="none" xmlns="http://www.w3.org/2000/svg">
<path d="M0 14C0 11.7909 1.79086 10 4 10H331C333.209 10 335 11.7909 335 14V43C335 45.2091 333.209 47 331 47H4C1.79086 47 0 45.2091 0 43V14Z" fill="white"/>
<path d="M22.3333 30.3333H21.8067L21.62 30.1533C22.2733 29.3933 22.6667 28.4067 22.6667 27.3333C22.6667 24.94 20.7267 23 18.3333 23C15.94 23 14 24.94 14 27.3333C14 29.7267 15.94 31.6667 18.3333 31.6667C19.4067 31.6667 20.3933 31.2733 21.1533 30.62L21.3333 30.8067V31.3333L24.6667 34.66L25.66 33.6667L22.3333 30.3333ZM18.3333 30.3333C16.6733 30.3333 15.3333 28.9933 15.3333 27.3333C15.3333 25.6733 16.6733 24.3333 18.3333 24.3333C19.9933 24.3333 21.3333 25.6733 21.3333 27.3333C21.3333 28.9933 19.9933 30.3333 18.3333 30.3333Z" fill="#777777"/>
<path d="M18.846 75.33H14.59L13.806 77.5H12.462L15.99 67.798H17.46L20.974 77.5H19.63L18.846 75.33ZM18.482 74.294L16.718 69.366L14.954 74.294H18.482ZM23.7856 67.14V77.5H22.5116V67.14H23.7856ZM27.2309 67.14V77.5H25.9569V67.14H27.2309ZM36.2286 77.598C35.5846 77.598 35.006 77.486 34.4926 77.262C33.9886 77.0287 33.592 76.7113 33.3026 76.31C33.0133 75.8993 32.864 75.428 32.8546 74.896H34.2126C34.2593 75.3533 34.446 75.7407 34.7726 76.058C35.1086 76.366 35.594 76.52 36.2286 76.52C36.8353 76.52 37.3113 76.3707 37.6566 76.072C38.0113 75.764 38.1886 75.372 38.1886 74.896C38.1886 74.5227 38.086 74.2193 37.8806 73.986C37.6753 73.7527 37.4186 73.5753 37.1106 73.454C36.8026 73.3327 36.3873 73.202 35.8646 73.062C35.2206 72.894 34.7026 72.726 34.3106 72.558C33.928 72.39 33.5966 72.1287 33.3166 71.774C33.046 71.41 32.9106 70.9247 32.9106 70.318C32.9106 69.786 33.046 69.3147 33.3166 68.904C33.5873 68.4933 33.9653 68.176 34.4506 67.952C34.9453 67.728 35.51 67.616 36.1446 67.616C37.0593 67.616 37.806 67.8447 38.3846 68.302C38.9726 68.7593 39.304 69.366 39.3786 70.122H37.9786C37.932 69.7487 37.736 69.422 37.3906 69.142C37.0453 68.8527 36.588 68.708 36.0186 68.708C35.4866 68.708 35.0526 68.848 34.7166 69.128C34.3806 69.3987 34.2126 69.7813 34.2126 70.276C34.2126 70.6307 34.3106 70.92 34.5066 71.144C34.712 71.368 34.9593 71.5407 35.2486 71.662C35.5473 71.774 35.9626 71.9047 36.4946 72.054C37.1386 72.2313 37.6566 72.4087 38.0486 72.586C38.4406 72.754 38.7766 73.02 39.0566 73.384C39.3366 73.7387 39.4766 74.224 39.4766 74.84C39.4766 75.316 39.3506 75.764 39.0986 76.184C38.8466 76.604 38.4733 76.9447 37.9786 77.206C37.484 77.4673 36.9006 77.598 36.2286 77.598ZM40.8754 73.65C40.8754 72.8567 41.0341 72.166 41.3514 71.578C41.6688 70.9807 42.1074 70.5187 42.6674 70.192C43.2368 69.8653 43.8854 69.702 44.6134 69.702C45.5561 69.702 46.3308 69.9307 46.9374 70.388C47.5534 70.8453 47.9594 71.48 48.1554 72.292H46.7834C46.6528 71.8253 46.3961 71.4567 46.0134 71.186C45.6401 70.9153 45.1734 70.78 44.6134 70.78C43.8854 70.78 43.2974 71.032 42.8494 71.536C42.4014 72.0307 42.1774 72.7353 42.1774 73.65C42.1774 74.574 42.4014 75.288 42.8494 75.792C43.2974 76.296 43.8854 76.548 44.6134 76.548C45.1734 76.548 45.6401 76.4173 46.0134 76.156C46.3868 75.8947 46.6434 75.5213 46.7834 75.036H48.1554C47.9501 75.82 47.5394 76.45 46.9234 76.926C46.3074 77.3927 45.5374 77.626 44.6134 77.626C43.8854 77.626 43.2368 77.4627 42.6674 77.136C42.1074 76.8093 41.6688 76.3473 41.3514 75.75C41.0341 75.1527 40.8754 74.4527 40.8754 73.65ZM53.6633 69.688C54.242 69.688 54.7647 69.814 55.2313 70.066C55.698 70.3087 56.062 70.6773 56.3233 71.172C56.594 71.6667 56.7293 72.2687 56.7293 72.978V77.5H55.4693V73.16C55.4693 72.3947 55.278 71.8113 54.8953 71.41C54.5127 70.9993 53.99 70.794 53.3273 70.794C52.6553 70.794 52.1187 71.004 51.7173 71.424C51.3253 71.844 51.1293 72.4553 51.1293 73.258V77.5H49.8553V67.14H51.1293V70.92C51.3813 70.528 51.7267 70.2247 52.1653 70.01C52.6133 69.7953 53.1127 69.688 53.6633 69.688ZM62.1564 77.626C61.4378 77.626 60.7844 77.4627 60.1964 77.136C59.6178 76.8093 59.1604 76.3473 58.8244 75.75C58.4978 75.1433 58.3344 74.4433 58.3344 73.65C58.3344 72.866 58.5024 72.1753 58.8384 71.578C59.1838 70.9713 59.6504 70.5093 60.2384 70.192C60.8264 69.8653 61.4844 69.702 62.2124 69.702C62.9404 69.702 63.5984 69.8653 64.1864 70.192C64.7744 70.5093 65.2364 70.9667 65.5724 71.564C65.9178 72.1613 66.0904 72.8567 66.0904 73.65C66.0904 74.4433 65.9131 75.1433 65.5584 75.75C65.2131 76.3473 64.7418 76.8093 64.1444 77.136C63.5471 77.4627 62.8844 77.626 62.1564 77.626ZM62.1564 76.506C62.6138 76.506 63.0431 76.3987 63.4444 76.184C63.8458 75.9693 64.1678 75.6473 64.4104 75.218C64.6624 74.7887 64.7884 74.266 64.7884 73.65C64.7884 73.034 64.6671 72.5113 64.4244 72.082C64.1818 71.6527 63.8644 71.3353 63.4724 71.13C63.0804 70.9153 62.6558 70.808 62.1984 70.808C61.7318 70.808 61.3024 70.9153 60.9104 71.13C60.5278 71.3353 60.2198 71.6527 59.9864 72.082C59.7531 72.5113 59.6364 73.034 59.6364 73.65C59.6364 74.2753 59.7484 74.8027 59.9724 75.232C60.2058 75.6613 60.5138 75.9833 60.8964 76.198C61.2791 76.4033 61.6991 76.506 62.1564 76.506ZM71.1115 77.626C70.3928 77.626 69.7395 77.4627 69.1515 77.136C68.5728 76.8093 68.1155 76.3473 67.7795 75.75C67.4528 75.1433 67.2895 74.4433 67.2895 73.65C67.2895 72.866 67.4575 72.1753 67.7935 71.578C68.1388 70.9713 68.6055 70.5093 69.1935 70.192C69.7815 69.8653 70.4395 69.702 71.1675 69.702C71.8955 69.702 72.5535 69.8653 73.1415 70.192C73.7295 70.5093 74.1915 70.9667 74.5275 71.564C74.8728 72.1613 75.0455 72.8567 75.0455 73.65C75.0455 74.4433 74.8682 75.1433 74.5135 75.75C74.1682 76.3473 73.6968 76.8093 73.0995 77.136C72.5022 77.4627 71.8395 77.626 71.1115 77.626ZM71.1115 76.506C71.5688 76.506 71.9982 76.3987 72.3995 76.184C72.8008 75.9693 73.1228 75.6473 73.3655 75.218C73.6175 74.7887 73.7435 74.266 73.7435 73.65C73.7435 73.034 73.6222 72.5113 73.3795 72.082C73.1368 71.6527 72.8195 71.3353 72.4275 71.13C72.0355 70.9153 71.6108 70.808 71.1535 70.808C70.6868 70.808 70.2575 70.9153 69.8655 71.13C69.4828 71.3353 69.1748 71.6527 68.9415 72.082C68.7082 72.5113 68.5915 73.034 68.5915 73.65C68.5915 74.2753 68.7035 74.8027 68.9275 75.232C69.1608 75.6613 69.4688 75.9833 69.8515 76.198C70.2342 76.4033 70.6542 76.506 71.1115 76.506ZM77.9946 67.14V77.5H76.7206V67.14H77.9946ZM82.8819 77.626C82.2939 77.626 81.7666 77.528 81.2999 77.332C80.8332 77.1267 80.4646 76.8467 80.1939 76.492C79.9232 76.128 79.7739 75.7127 79.7459 75.246H81.0619C81.0992 75.6287 81.2766 75.9413 81.5939 76.184C81.9206 76.4267 82.3452 76.548 82.8679 76.548C83.3532 76.548 83.7359 76.4407 84.0159 76.226C84.2959 76.0113 84.4359 75.7407 84.4359 75.414C84.4359 75.078 84.2866 74.8307 83.9879 74.672C83.6892 74.504 83.2272 74.3407 82.6019 74.182C82.0326 74.0327 81.5659 73.8833 81.2019 73.734C80.8472 73.5753 80.5392 73.3467 80.2779 73.048C80.0259 72.74 79.8999 72.3387 79.8999 71.844C79.8999 71.452 80.0166 71.0927 80.2499 70.766C80.4832 70.4393 80.8146 70.1827 81.2439 69.996C81.6732 69.8 82.1632 69.702 82.7139 69.702C83.5632 69.702 84.2492 69.9167 84.7719 70.346C85.2946 70.7753 85.5746 71.3633 85.6119 72.11H84.3379C84.3099 71.7087 84.1466 71.3867 83.8479 71.144C83.5586 70.9013 83.1666 70.78 82.6719 70.78C82.2146 70.78 81.8506 70.878 81.5799 71.074C81.3092 71.27 81.1739 71.5267 81.1739 71.844C81.1739 72.096 81.2532 72.306 81.4119 72.474C81.5799 72.6327 81.7852 72.7633 82.0279 72.866C82.2799 72.9593 82.6252 73.0667 83.0639 73.188C83.6146 73.3373 84.0626 73.4867 84.4079 73.636C84.7532 73.776 85.0472 73.9907 85.2899 74.28C85.5419 74.5693 85.6726 74.9473 85.6819 75.414C85.6819 75.834 85.5652 76.212 85.3319 76.548C85.0986 76.884 84.7672 77.15 84.3379 77.346C83.9179 77.5327 83.4326 77.626 82.8819 77.626Z" fill="#777777"/>
<path d="M307.667 68.3333V77.6667H298.333V68.3333H307.667ZM307.667 67H298.333C297.6 67 297 67.6 297 68.3333V77.6667C297 78.4 297.6 79 298.333 79H307.667C308.4 79 309 78.4 309 77.6667V68.3333C309 67.6 308.4 67 307.667 67Z" fill="#777777"/>
<path d="M0 103C0 100.791 1.79086 99 4 99H331C333.209 99 335 100.791 335 103V135C335 137.209 333.209 139 331 139H4C1.79086 139 0 137.209 0 135V103Z" fill="white"/>
<path d="M18.6667 122.333L22 119L18.6667 115.667V122.333Z" fill="#777777"/>
<path d="M40.172 123.598C39.528 123.598 38.9493 123.486 38.436 123.262C37.932 123.029 37.5353 122.711 37.246 122.31C36.9567 121.899 36.8073 121.428 36.798 120.896H38.156C38.2027 121.353 38.3893 121.741 38.716 122.058C39.052 122.366 39.5373 122.52 40.172 122.52C40.7787 122.52 41.2547 122.371 41.6 122.072C41.9547 121.764 42.132 121.372 42.132 120.896C42.132 120.523 42.0293 120.219 41.824 119.986C41.6187 119.753 41.362 119.575 41.054 119.454C40.746 119.333 40.3307 119.202 39.808 119.062C39.164 118.894 38.646 118.726 38.254 118.558C37.8713 118.39 37.54 118.129 37.26 117.774C36.9893 117.41 36.854 116.925 36.854 116.318C36.854 115.786 36.9893 115.315 37.26 114.904C37.5307 114.493 37.9087 114.176 38.394 113.952C38.8887 113.728 39.4533 113.616 40.088 113.616C41.0027 113.616 41.7493 113.845 42.328 114.302C42.916 114.759 43.2473 115.366 43.322 116.122H41.922C41.8753 115.749 41.6793 115.422 41.334 115.142C40.9887 114.853 40.5313 114.708 39.962 114.708C39.43 114.708 38.996 114.848 38.66 115.128C38.324 115.399 38.156 115.781 38.156 116.276C38.156 116.631 38.254 116.92 38.45 117.144C38.6553 117.368 38.9027 117.541 39.192 117.662C39.4907 117.774 39.906 117.905 40.438 118.054C41.082 118.231 41.6 118.409 41.992 118.586C42.384 118.754 42.72 119.02 43 119.384C43.28 119.739 43.42 120.224 43.42 120.84C43.42 121.316 43.294 121.764 43.042 122.184C42.79 122.604 42.4167 122.945 41.922 123.206C41.4273 123.467 40.844 123.598 40.172 123.598ZM44.8188 119.65C44.8188 118.857 44.9775 118.166 45.2948 117.578C45.6121 116.981 46.0508 116.519 46.6108 116.192C47.1801 115.865 47.8288 115.702 48.5568 115.702C49.4995 115.702 50.2741 115.931 50.8808 116.388C51.4968 116.845 51.9028 117.48 52.0988 118.292H50.7268C50.5961 117.825 50.3395 117.457 49.9568 117.186C49.5835 116.915 49.1168 116.78 48.5568 116.78C47.8288 116.78 47.2408 117.032 46.7928 117.536C46.3448 118.031 46.1208 118.735 46.1208 119.65C46.1208 120.574 46.3448 121.288 46.7928 121.792C47.2408 122.296 47.8288 122.548 48.5568 122.548C49.1168 122.548 49.5835 122.417 49.9568 122.156C50.3301 121.895 50.5868 121.521 50.7268 121.036H52.0988C51.8935 121.82 51.4828 122.45 50.8668 122.926C50.2508 123.393 49.4808 123.626 48.5568 123.626C47.8288 123.626 47.1801 123.463 46.6108 123.136C46.0508 122.809 45.6121 122.347 45.2948 121.75C44.9775 121.153 44.8188 120.453 44.8188 119.65ZM57.6067 115.688C58.1854 115.688 58.708 115.814 59.1747 116.066C59.6414 116.309 60.0054 116.677 60.2667 117.172C60.5374 117.667 60.6727 118.269 60.6727 118.978V123.5H59.4127V119.16C59.4127 118.395 59.2214 117.811 58.8387 117.41C58.456 116.999 57.9334 116.794 57.2707 116.794C56.5987 116.794 56.062 117.004 55.6607 117.424C55.2687 117.844 55.0727 118.455 55.0727 119.258V123.5H53.7987V113.14H55.0727V116.92C55.3247 116.528 55.67 116.225 56.1087 116.01C56.5567 115.795 57.056 115.688 57.6067 115.688ZM66.0998 123.626C65.3811 123.626 64.7278 123.463 64.1398 123.136C63.5611 122.809 63.1038 122.347 62.7678 121.75C62.4411 121.143 62.2778 120.443 62.2778 119.65C62.2778 118.866 62.4458 118.175 62.7818 117.578C63.1271 116.971 63.5938 116.509 64.1818 116.192C64.7698 115.865 65.4278 115.702 66.1558 115.702C66.8838 115.702 67.5418 115.865 68.1298 116.192C68.7178 116.509 69.1798 116.967 69.5158 117.564C69.8611 118.161 70.0338 118.857 70.0338 119.65C70.0338 120.443 69.8564 121.143 69.5018 121.75C69.1564 122.347 68.6851 122.809 68.0878 123.136C67.4904 123.463 66.8278 123.626 66.0998 123.626ZM66.0998 122.506C66.5571 122.506 66.9864 122.399 67.3878 122.184C67.7891 121.969 68.1111 121.647 68.3538 121.218C68.6058 120.789 68.7318 120.266 68.7318 119.65C68.7318 119.034 68.6104 118.511 68.3678 118.082C68.1251 117.653 67.8078 117.335 67.4158 117.13C67.0238 116.915 66.5991 116.808 66.1418 116.808C65.6751 116.808 65.2458 116.915 64.8538 117.13C64.4711 117.335 64.1631 117.653 63.9298 118.082C63.6964 118.511 63.5798 119.034 63.5798 119.65C63.5798 120.275 63.6918 120.803 63.9158 121.232C64.1491 121.661 64.4571 121.983 64.8398 122.198C65.2224 122.403 65.6424 122.506 66.0998 122.506ZM75.0549 123.626C74.3362 123.626 73.6829 123.463 73.0949 123.136C72.5162 122.809 72.0589 122.347 71.7229 121.75C71.3962 121.143 71.2329 120.443 71.2329 119.65C71.2329 118.866 71.4009 118.175 71.7369 117.578C72.0822 116.971 72.5489 116.509 73.1369 116.192C73.7249 115.865 74.3829 115.702 75.1109 115.702C75.8389 115.702 76.4969 115.865 77.0849 116.192C77.6729 116.509 78.1349 116.967 78.4709 117.564C78.8162 118.161 78.9889 118.857 78.9889 119.65C78.9889 120.443 78.8115 121.143 78.4569 121.75C78.1115 122.347 77.6402 122.809 77.0429 123.136C76.4455 123.463 75.7829 123.626 75.0549 123.626ZM75.0549 122.506C75.5122 122.506 75.9415 122.399 76.3429 122.184C76.7442 121.969 77.0662 121.647 77.3089 121.218C77.5609 120.789 77.6869 120.266 77.6869 119.65C77.6869 119.034 77.5655 118.511 77.3229 118.082C77.0802 117.653 76.7629 117.335 76.3709 117.13C75.9789 116.915 75.5542 116.808 75.0969 116.808C74.6302 116.808 74.2009 116.915 73.8089 117.13C73.4262 117.335 73.1182 117.653 72.8849 118.082C72.6515 118.511 72.5349 119.034 72.5349 119.65C72.5349 120.275 72.6469 120.803 72.8709 121.232C73.1042 121.661 73.4122 121.983 73.7949 122.198C74.1775 122.403 74.5975 122.506 75.0549 122.506ZM81.9379 113.14V123.5H80.6639V113.14H81.9379ZM93.6097 121.33H89.3537L88.5697 123.5H87.2257L90.7537 113.798H92.2237L95.7377 123.5H94.3937L93.6097 121.33ZM93.2457 120.294L91.4817 115.366L89.7177 120.294H93.2457Z" fill="#4282AA"/>
<path d="M307.667 114.333V123.667H298.333V114.333H307.667ZM307.667 113H298.333C297.6 113 297 113.6 297 114.333V123.667C297 124.4 297.6 125 298.333 125H307.667C308.4 125 309 124.4 309 123.667V114.333C309 113.6 308.4 113 307.667 113Z" fill="#777777"/>
<path d="M18.6667 168.333L22 165L18.6667 161.667V168.333Z" fill="#777777"/>
<path d="M40.172 169.598C39.528 169.598 38.9493 169.486 38.436 169.262C37.932 169.029 37.5353 168.711 37.246 168.31C36.9567 167.899 36.8073 167.428 36.798 166.896H38.156C38.2027 167.353 38.3893 167.741 38.716 168.058C39.052 168.366 39.5373 168.52 40.172 168.52C40.7787 168.52 41.2547 168.371 41.6 168.072C41.9547 167.764 42.132 167.372 42.132 166.896C42.132 166.523 42.0293 166.219 41.824 165.986C41.6187 165.753 41.362 165.575 41.054 165.454C40.746 165.333 40.3307 165.202 39.808 165.062C39.164 164.894 38.646 164.726 38.254 164.558C37.8713 164.39 37.54 164.129 37.26 163.774C36.9893 163.41 36.854 162.925 36.854 162.318C36.854 161.786 36.9893 161.315 37.26 160.904C37.5307 160.493 37.9087 160.176 38.394 159.952C38.8887 159.728 39.4533 159.616 40.088 159.616C41.0027 159.616 41.7493 159.845 42.328 160.302C42.916 160.759 43.2473 161.366 43.322 162.122H41.922C41.8753 161.749 41.6793 161.422 41.334 161.142C40.9887 160.853 40.5313 160.708 39.962 160.708C39.43 160.708 38.996 160.848 38.66 161.128C38.324 161.399 38.156 161.781 38.156 162.276C38.156 162.631 38.254 162.92 38.45 163.144C38.6553 163.368 38.9027 163.541 39.192 163.662C39.4907 163.774 39.906 163.905 40.438 164.054C41.082 164.231 41.6 164.409 41.992 164.586C42.384 164.754 42.72 165.02 43 165.384C43.28 165.739 43.42 166.224 43.42 166.84C43.42 167.316 43.294 167.764 43.042 168.184C42.79 168.604 42.4167 168.945 41.922 169.206C41.4273 169.467 40.844 169.598 40.172 169.598ZM44.8188 165.65C44.8188 164.857 44.9775 164.166 45.2948 163.578C45.6121 162.981 46.0508 162.519 46.6108 162.192C47.1801 161.865 47.8288 161.702 48.5568 161.702C49.4995 161.702 50.2741 161.931 50.8808 162.388C51.4968 162.845 51.9028 163.48 52.0988 164.292H50.7268C50.5961 163.825 50.3395 163.457 49.9568 163.186C49.5835 162.915 49.1168 162.78 48.5568 162.78C47.8288 162.78 47.2408 163.032 46.7928 163.536C46.3448 164.031 46.1208 164.735 46.1208 165.65C46.1208 166.574 46.3448 167.288 46.7928 167.792C47.2408 168.296 47.8288 168.548 48.5568 168.548C49.1168 168.548 49.5835 168.417 49.9568 168.156C50.3301 167.895 50.5868 167.521 50.7268 167.036H52.0988C51.8935 167.82 51.4828 168.45 50.8668 168.926C50.2508 169.393 49.4808 169.626 48.5568 169.626C47.8288 169.626 47.1801 169.463 46.6108 169.136C46.0508 168.809 45.6121 168.347 45.2948 167.75C44.9775 167.153 44.8188 166.453 44.8188 165.65ZM57.6067 161.688C58.1854 161.688 58.708 161.814 59.1747 162.066C59.6414 162.309 60.0054 162.677 60.2667 163.172C60.5374 163.667 60.6727 164.269 60.6727 164.978V169.5H59.4127V165.16C59.4127 164.395 59.2214 163.811 58.8387 163.41C58.456 162.999 57.9334 162.794 57.2707 162.794C56.5987 162.794 56.062 163.004 55.6607 163.424C55.2687 163.844 55.0727 164.455 55.0727 165.258V169.5H53.7987V159.14H55.0727V162.92C55.3247 162.528 55.67 162.225 56.1087 162.01C56.5567 161.795 57.056 161.688 57.6067 161.688ZM66.0998 169.626C65.3811 169.626 64.7278 169.463 64.1398 169.136C63.5611 168.809 63.1038 168.347 62.7678 167.75C62.4411 167.143 62.2778 166.443 62.2778 165.65C62.2778 164.866 62.4458 164.175 62.7818 163.578C63.1271 162.971 63.5938 162.509 64.1818 162.192C64.7698 161.865 65.4278 161.702 66.1558 161.702C66.8838 161.702 67.5418 161.865 68.1298 162.192C68.7178 162.509 69.1798 162.967 69.5158 163.564C69.8611 164.161 70.0338 164.857 70.0338 165.65C70.0338 166.443 69.8564 167.143 69.5018 167.75C69.1564 168.347 68.6851 168.809 68.0878 169.136C67.4904 169.463 66.8278 169.626 66.0998 169.626ZM66.0998 168.506C66.5571 168.506 66.9864 168.399 67.3878 168.184C67.7891 167.969 68.1111 167.647 68.3538 167.218C68.6058 166.789 68.7318 166.266 68.7318 165.65C68.7318 165.034 68.6104 164.511 68.3678 164.082C68.1251 163.653 67.8078 163.335 67.4158 163.13C67.0238 162.915 66.5991 162.808 66.1418 162.808C65.6751 162.808 65.2458 162.915 64.8538 163.13C64.4711 163.335 64.1631 163.653 63.9298 164.082C63.6964 164.511 63.5798 165.034 63.5798 165.65C63.5798 166.275 63.6918 166.803 63.9158 167.232C64.1491 167.661 64.4571 167.983 64.8398 168.198C65.2224 168.403 65.6424 168.506 66.0998 168.506ZM75.0549 169.626C74.3362 169.626 73.6829 169.463 73.0949 169.136C72.5162 168.809 72.0589 168.347 71.7229 167.75C71.3962 167.143 71.2329 166.443 71.2329 165.65C71.2329 164.866 71.4009 164.175 71.7369 163.578C72.0822 162.971 72.5489 162.509 73.1369 162.192C73.7249 161.865 74.3829 161.702 75.1109 161.702C75.8389 161.702 76.4969 161.865 77.0849 162.192C77.6729 162.509 78.1349 162.967 78.4709 163.564C78.8162 164.161 78.9889 164.857 78.9889 165.65C78.9889 166.443 78.8115 167.143 78.4569 167.75C78.1115 168.347 77.6402 168.809 77.0429 169.136C76.4455 169.463 75.7829 169.626 75.0549 169.626ZM75.0549 168.506C75.5122 168.506 75.9415 168.399 76.3429 168.184C76.7442 167.969 77.0662 167.647 77.3089 167.218C77.5609 166.789 77.6869 166.266 77.6869 165.65C77.6869 165.034 77.5655 164.511 77.3229 164.082C77.0802 163.653 76.7629 163.335 76.3709 163.13C75.9789 162.915 75.5542 162.808 75.0969 162.808C74.6302 162.808 74.2009 162.915 73.8089 163.13C73.4262 163.335 73.1182 163.653 72.8849 164.082C72.6515 164.511 72.5349 165.034 72.5349 165.65C72.5349 166.275 72.6469 166.803 72.8709 167.232C73.1042 167.661 73.4122 167.983 73.7949 168.198C74.1775 168.403 74.5975 168.506 75.0549 168.506ZM81.9379 159.14V169.5H80.6639V159.14H81.9379ZM92.7277 164.474C93.0823 164.53 93.4043 164.675 93.6937 164.908C93.9923 165.141 94.2257 165.431 94.3937 165.776C94.571 166.121 94.6597 166.49 94.6597 166.882C94.6597 167.377 94.5337 167.825 94.2817 168.226C94.0297 168.618 93.661 168.931 93.1757 169.164C92.6997 169.388 92.135 169.5 91.4817 169.5H87.8417V159.742H91.3417C92.0043 159.742 92.569 159.854 93.0357 160.078C93.5023 160.293 93.8523 160.587 94.0857 160.96C94.319 161.333 94.4357 161.753 94.4357 162.22C94.4357 162.799 94.277 163.279 93.9597 163.662C93.6517 164.035 93.241 164.306 92.7277 164.474ZM89.1157 163.956H91.2577C91.855 163.956 92.317 163.816 92.6437 163.536C92.9703 163.256 93.1337 162.869 93.1337 162.374C93.1337 161.879 92.9703 161.492 92.6437 161.212C92.317 160.932 91.8457 160.792 91.2297 160.792H89.1157V163.956ZM91.3697 168.45C92.0043 168.45 92.499 168.301 92.8537 168.002C93.2083 167.703 93.3857 167.288 93.3857 166.756C93.3857 166.215 93.199 165.79 92.8257 165.482C92.4523 165.165 91.953 165.006 91.3277 165.006H89.1157V168.45H91.3697Z" fill="#777777"/>
<path d="M307.667 160.333V169.667H298.333V160.333H307.667ZM307.667 159H298.333C297.6 159 297 159.6 297 160.333V169.667C297 170.4 297.6 171 298.333 171H307.667C308.4 171 309 170.4 309 169.667V160.333C309 159.6 308.4 159 307.667 159Z" fill="#777777"/>
<path d="M18.6667 214.333L22 211L18.6667 207.667V214.333Z" fill="#777777"/>
<path d="M40.172 215.598C39.528 215.598 38.9493 215.486 38.436 215.262C37.932 215.029 37.5353 214.711 37.246 214.31C36.9567 213.899 36.8073 213.428 36.798 212.896H38.156C38.2027 213.353 38.3893 213.741 38.716 214.058C39.052 214.366 39.5373 214.52 40.172 214.52C40.7787 214.52 41.2547 214.371 41.6 214.072C41.9547 213.764 42.132 213.372 42.132 212.896C42.132 212.523 42.0293 212.219 41.824 211.986C41.6187 211.753 41.362 211.575 41.054 211.454C40.746 211.333 40.3307 211.202 39.808 211.062C39.164 210.894 38.646 210.726 38.254 210.558C37.8713 210.39 37.54 210.129 37.26 209.774C36.9893 209.41 36.854 208.925 36.854 208.318C36.854 207.786 36.9893 207.315 37.26 206.904C37.5307 206.493 37.9087 206.176 38.394 205.952C38.8887 205.728 39.4533 205.616 40.088 205.616C41.0027 205.616 41.7493 205.845 42.328 206.302C42.916 206.759 43.2473 207.366 43.322 208.122H41.922C41.8753 207.749 41.6793 207.422 41.334 207.142C40.9887 206.853 40.5313 206.708 39.962 206.708C39.43 206.708 38.996 206.848 38.66 207.128C38.324 207.399 38.156 207.781 38.156 208.276C38.156 208.631 38.254 208.92 38.45 209.144C38.6553 209.368 38.9027 209.541 39.192 209.662C39.4907 209.774 39.906 209.905 40.438 210.054C41.082 210.231 41.6 210.409 41.992 210.586C42.384 210.754 42.72 211.02 43 211.384C43.28 211.739 43.42 212.224 43.42 212.84C43.42 213.316 43.294 213.764 43.042 214.184C42.79 214.604 42.4167 214.945 41.922 215.206C41.4273 215.467 40.844 215.598 40.172 215.598ZM44.8188 211.65C44.8188 210.857 44.9775 210.166 45.2948 209.578C45.6121 208.981 46.0508 208.519 46.6108 208.192C47.1801 207.865 47.8288 207.702 48.5568 207.702C49.4995 207.702 50.2741 207.931 50.8808 208.388C51.4968 208.845 51.9028 209.48 52.0988 210.292H50.7268C50.5961 209.825 50.3395 209.457 49.9568 209.186C49.5835 208.915 49.1168 208.78 48.5568 208.78C47.8288 208.78 47.2408 209.032 46.7928 209.536C46.3448 210.031 46.1208 210.735 46.1208 211.65C46.1208 212.574 46.3448 213.288 46.7928 213.792C47.2408 214.296 47.8288 214.548 48.5568 214.548C49.1168 214.548 49.5835 214.417 49.9568 214.156C50.3301 213.895 50.5868 213.521 50.7268 213.036H52.0988C51.8935 213.82 51.4828 214.45 50.8668 214.926C50.2508 215.393 49.4808 215.626 48.5568 215.626C47.8288 215.626 47.1801 215.463 46.6108 215.136C46.0508 214.809 45.6121 214.347 45.2948 213.75C44.9775 213.153 44.8188 212.453 44.8188 211.65ZM57.6067 207.688C58.1854 207.688 58.708 207.814 59.1747 208.066C59.6414 208.309 60.0054 208.677 60.2667 209.172C60.5374 209.667 60.6727 210.269 60.6727 210.978V215.5H59.4127V211.16C59.4127 210.395 59.2214 209.811 58.8387 209.41C58.456 208.999 57.9334 208.794 57.2707 208.794C56.5987 208.794 56.062 209.004 55.6607 209.424C55.2687 209.844 55.0727 210.455 55.0727 211.258V215.5H53.7987V205.14H55.0727V208.92C55.3247 208.528 55.67 208.225 56.1087 208.01C56.5567 207.795 57.056 207.688 57.6067 207.688ZM66.0998 215.626C65.3811 215.626 64.7278 215.463 64.1398 215.136C63.5611 214.809 63.1038 214.347 62.7678 213.75C62.4411 213.143 62.2778 212.443 62.2778 211.65C62.2778 210.866 62.4458 210.175 62.7818 209.578C63.1271 208.971 63.5938 208.509 64.1818 208.192C64.7698 207.865 65.4278 207.702 66.1558 207.702C66.8838 207.702 67.5418 207.865 68.1298 208.192C68.7178 208.509 69.1798 208.967 69.5158 209.564C69.8611 210.161 70.0338 210.857 70.0338 211.65C70.0338 212.443 69.8564 213.143 69.5018 213.75C69.1564 214.347 68.6851 214.809 68.0878 215.136C67.4904 215.463 66.8278 215.626 66.0998 215.626ZM66.0998 214.506C66.5571 214.506 66.9864 214.399 67.3878 214.184C67.7891 213.969 68.1111 213.647 68.3538 213.218C68.6058 212.789 68.7318 212.266 68.7318 211.65C68.7318 211.034 68.6104 210.511 68.3678 210.082C68.1251 209.653 67.8078 209.335 67.4158 209.13C67.0238 208.915 66.5991 208.808 66.1418 208.808C65.6751 208.808 65.2458 208.915 64.8538 209.13C64.4711 209.335 64.1631 209.653 63.9298 210.082C63.6964 210.511 63.5798 211.034 63.5798 211.65C63.5798 212.275 63.6918 212.803 63.9158 213.232C64.1491 213.661 64.4571 213.983 64.8398 214.198C65.2224 214.403 65.6424 214.506 66.0998 214.506ZM75.0549 215.626C74.3362 215.626 73.6829 215.463 73.0949 215.136C72.5162 214.809 72.0589 214.347 71.7229 213.75C71.3962 213.143 71.2329 212.443 71.2329 211.65C71.2329 210.866 71.4009 210.175 71.7369 209.578C72.0822 208.971 72.5489 208.509 73.1369 208.192C73.7249 207.865 74.3829 207.702 75.1109 207.702C75.8389 207.702 76.4969 207.865 77.0849 208.192C77.6729 208.509 78.1349 208.967 78.4709 209.564C78.8162 210.161 78.9889 210.857 78.9889 211.65C78.9889 212.443 78.8115 213.143 78.4569 213.75C78.1115 214.347 77.6402 214.809 77.0429 215.136C76.4455 215.463 75.7829 215.626 75.0549 215.626ZM75.0549 214.506C75.5122 214.506 75.9415 214.399 76.3429 214.184C76.7442 213.969 77.0662 213.647 77.3089 213.218C77.5609 212.789 77.6869 212.266 77.6869 211.65C77.6869 211.034 77.5655 210.511 77.3229 210.082C77.0802 209.653 76.7629 209.335 76.3709 209.13C75.9789 208.915 75.5542 208.808 75.0969 208.808C74.6302 208.808 74.2009 208.915 73.8089 209.13C73.4262 209.335 73.1182 209.653 72.8849 210.082C72.6515 210.511 72.5349 211.034 72.5349 211.65C72.5349 212.275 72.6469 212.803 72.8709 213.232C73.1042 213.661 73.4122 213.983 73.7949 214.198C74.1775 214.403 74.5975 214.506 75.0549 214.506ZM81.9379 205.14V215.5H80.6639V205.14H81.9379ZM87.3657 210.614C87.3657 209.662 87.5803 208.808 88.0097 208.052C88.439 207.287 89.0223 206.689 89.7597 206.26C90.5063 205.831 91.3323 205.616 92.2377 205.616C93.3017 205.616 94.2303 205.873 95.0237 206.386C95.817 206.899 96.3957 207.627 96.7597 208.57H95.2337C94.963 207.982 94.571 207.529 94.0577 207.212C93.5537 206.895 92.947 206.736 92.2377 206.736C91.5563 206.736 90.945 206.895 90.4037 207.212C89.8623 207.529 89.4377 207.982 89.1297 208.57C88.8217 209.149 88.6677 209.83 88.6677 210.614C88.6677 211.389 88.8217 212.07 89.1297 212.658C89.4377 213.237 89.8623 213.685 90.4037 214.002C90.945 214.319 91.5563 214.478 92.2377 214.478C92.947 214.478 93.5537 214.324 94.0577 214.016C94.571 213.699 94.963 213.246 95.2337 212.658H96.7597C96.3957 213.591 95.817 214.315 95.0237 214.828C94.2303 215.332 93.3017 215.584 92.2377 215.584C91.3323 215.584 90.5063 215.374 89.7597 214.954C89.0223 214.525 88.439 213.932 88.0097 213.176C87.5803 212.42 87.3657 211.566 87.3657 210.614Z" fill="#777777"/>
<path d="M307.667 206.333V215.667H298.333V206.333H307.667ZM307.667 205H298.333C297.6 205 297 205.6 297 206.333V215.667C297 216.4 297.6 217 298.333 217H307.667C308.4 217 309 216.4 309 215.667V206.333C309 205.6 308.4 205 307.667 205Z" fill="#777777"/>
<path d="M18.6667 260.333L22 257L18.6667 253.667V260.333Z" fill="#777777"/>
<path d="M40.172 261.598C39.528 261.598 38.9493 261.486 38.436 261.262C37.932 261.029 37.5353 260.711 37.246 260.31C36.9567 259.899 36.8073 259.428 36.798 258.896H38.156C38.2027 259.353 38.3893 259.741 38.716 260.058C39.052 260.366 39.5373 260.52 40.172 260.52C40.7787 260.52 41.2547 260.371 41.6 260.072C41.9547 259.764 42.132 259.372 42.132 258.896C42.132 258.523 42.0293 258.219 41.824 257.986C41.6187 257.753 41.362 257.575 41.054 257.454C40.746 257.333 40.3307 257.202 39.808 257.062C39.164 256.894 38.646 256.726 38.254 256.558C37.8713 256.39 37.54 256.129 37.26 255.774C36.9893 255.41 36.854 254.925 36.854 254.318C36.854 253.786 36.9893 253.315 37.26 252.904C37.5307 252.493 37.9087 252.176 38.394 251.952C38.8887 251.728 39.4533 251.616 40.088 251.616C41.0027 251.616 41.7493 251.845 42.328 252.302C42.916 252.759 43.2473 253.366 43.322 254.122H41.922C41.8753 253.749 41.6793 253.422 41.334 253.142C40.9887 252.853 40.5313 252.708 39.962 252.708C39.43 252.708 38.996 252.848 38.66 253.128C38.324 253.399 38.156 253.781 38.156 254.276C38.156 254.631 38.254 254.92 38.45 255.144C38.6553 255.368 38.9027 255.541 39.192 255.662C39.4907 255.774 39.906 255.905 40.438 256.054C41.082 256.231 41.6 256.409 41.992 256.586C42.384 256.754 42.72 257.02 43 257.384C43.28 257.739 43.42 258.224 43.42 258.84C43.42 259.316 43.294 259.764 43.042 260.184C42.79 260.604 42.4167 260.945 41.922 261.206C41.4273 261.467 40.844 261.598 40.172 261.598ZM44.8188 257.65C44.8188 256.857 44.9775 256.166 45.2948 255.578C45.6121 254.981 46.0508 254.519 46.6108 254.192C47.1801 253.865 47.8288 253.702 48.5568 253.702C49.4995 253.702 50.2741 253.931 50.8808 254.388C51.4968 254.845 51.9028 255.48 52.0988 256.292H50.7268C50.5961 255.825 50.3395 255.457 49.9568 255.186C49.5835 254.915 49.1168 254.78 48.5568 254.78C47.8288 254.78 47.2408 255.032 46.7928 255.536C46.3448 256.031 46.1208 256.735 46.1208 257.65C46.1208 258.574 46.3448 259.288 46.7928 259.792C47.2408 260.296 47.8288 260.548 48.5568 260.548C49.1168 260.548 49.5835 260.417 49.9568 260.156C50.3301 259.895 50.5868 259.521 50.7268 259.036H52.0988C51.8935 259.82 51.4828 260.45 50.8668 260.926C50.2508 261.393 49.4808 261.626 48.5568 261.626C47.8288 261.626 47.1801 261.463 46.6108 261.136C46.0508 260.809 45.6121 260.347 45.2948 259.75C44.9775 259.153 44.8188 258.453 44.8188 257.65ZM57.6067 253.688C58.1854 253.688 58.708 253.814 59.1747 254.066C59.6414 254.309 60.0054 254.677 60.2667 255.172C60.5374 255.667 60.6727 256.269 60.6727 256.978V261.5H59.4127V257.16C59.4127 256.395 59.2214 255.811 58.8387 255.41C58.456 254.999 57.9334 254.794 57.2707 254.794C56.5987 254.794 56.062 255.004 55.6607 255.424C55.2687 255.844 55.0727 256.455 55.0727 257.258V261.5H53.7987V251.14H55.0727V254.92C55.3247 254.528 55.67 254.225 56.1087 254.01C56.5567 253.795 57.056 253.688 57.6067 253.688ZM66.0998 261.626C65.3811 261.626 64.7278 261.463 64.1398 261.136C63.5611 260.809 63.1038 260.347 62.7678 259.75C62.4411 259.143 62.2778 258.443 62.2778 257.65C62.2778 256.866 62.4458 256.175 62.7818 255.578C63.1271 254.971 63.5938 254.509 64.1818 254.192C64.7698 253.865 65.4278 253.702 66.1558 253.702C66.8838 253.702 67.5418 253.865 68.1298 254.192C68.7178 254.509 69.1798 254.967 69.5158 255.564C69.8611 256.161 70.0338 256.857 70.0338 257.65C70.0338 258.443 69.8564 259.143 69.5018 259.75C69.1564 260.347 68.6851 260.809 68.0878 261.136C67.4904 261.463 66.8278 261.626 66.0998 261.626ZM66.0998 260.506C66.5571 260.506 66.9864 260.399 67.3878 260.184C67.7891 259.969 68.1111 259.647 68.3538 259.218C68.6058 258.789 68.7318 258.266 68.7318 257.65C68.7318 257.034 68.6104 256.511 68.3678 256.082C68.1251 255.653 67.8078 255.335 67.4158 255.13C67.0238 254.915 66.5991 254.808 66.1418 254.808C65.6751 254.808 65.2458 254.915 64.8538 255.13C64.4711 255.335 64.1631 255.653 63.9298 256.082C63.6964 256.511 63.5798 257.034 63.5798 257.65C63.5798 258.275 63.6918 258.803 63.9158 259.232C64.1491 259.661 64.4571 259.983 64.8398 260.198C65.2224 260.403 65.6424 260.506 66.0998 260.506ZM75.0549 261.626C74.3362 261.626 73.6829 261.463 73.0949 261.136C72.5162 260.809 72.0589 260.347 71.7229 259.75C71.3962 259.143 71.2329 258.443 71.2329 257.65C71.2329 256.866 71.4009 256.175 71.7369 255.578C72.0822 254.971 72.5489 254.509 73.1369 254.192C73.7249 253.865 74.3829 253.702 75.1109 253.702C75.8389 253.702 76.4969 253.865 77.0849 254.192C77.6729 254.509 78.1349 254.967 78.4709 255.564C78.8162 256.161 78.9889 256.857 78.9889 257.65C78.9889 258.443 78.8115 259.143 78.4569 259.75C78.1115 260.347 77.6402 260.809 77.0429 261.136C76.4455 261.463 75.7829 261.626 75.0549 261.626ZM75.0549 260.506C75.5122 260.506 75.9415 260.399 76.3429 260.184C76.7442 259.969 77.0662 259.647 77.3089 259.218C77.5609 258.789 77.6869 258.266 77.6869 257.65C77.6869 257.034 77.5655 256.511 77.3229 256.082C77.0802 255.653 76.7629 255.335 76.3709 255.13C75.9789 254.915 75.5542 254.808 75.0969 254.808C74.6302 254.808 74.2009 254.915 73.8089 255.13C73.4262 255.335 73.1182 255.653 72.8849 256.082C72.6515 256.511 72.5349 257.034 72.5349 257.65C72.5349 258.275 72.6469 258.803 72.8709 259.232C73.1042 259.661 73.4122 259.983 73.7949 260.198C74.1775 260.403 74.5975 260.506 75.0549 260.506ZM81.9379 251.14V261.5H80.6639V251.14H81.9379ZM90.8797 251.742C91.9437 251.742 92.863 251.943 93.6377 252.344C94.4217 252.736 95.019 253.301 95.4297 254.038C95.8497 254.775 96.0597 255.643 96.0597 256.642C96.0597 257.641 95.8497 258.509 95.4297 259.246C95.019 259.974 94.4217 260.534 93.6377 260.926C92.863 261.309 91.9437 261.5 90.8797 261.5H87.8417V251.742H90.8797ZM90.8797 260.45C92.1397 260.45 93.101 260.119 93.7637 259.456C94.4263 258.784 94.7577 257.846 94.7577 256.642C94.7577 255.429 94.4217 254.481 93.7497 253.8C93.087 253.119 92.1303 252.778 90.8797 252.778H89.1157V260.45H90.8797Z" fill="#777777"/>
<path d="M307.667 252.333V261.667H298.333V252.333H307.667ZM307.667 251H298.333C297.6 251 297 251.6 297 252.333V261.667C297 262.4 297.6 263 298.333 263H307.667C308.4 263 309 262.4 309 261.667V252.333C309 251.6 308.4 251 307.667 251Z" fill="#777777"/>
<path d="M18.6667 306.333L22 303L18.6667 299.667V306.333Z" fill="#777777"/>
<path d="M40.172 307.598C39.528 307.598 38.9493 307.486 38.436 307.262C37.932 307.029 37.5353 306.711 37.246 306.31C36.9567 305.899 36.8073 305.428 36.798 304.896H38.156C38.2027 305.353 38.3893 305.741 38.716 306.058C39.052 306.366 39.5373 306.52 40.172 306.52C40.7787 306.52 41.2547 306.371 41.6 306.072C41.9547 305.764 42.132 305.372 42.132 304.896C42.132 304.523 42.0293 304.219 41.824 303.986C41.6187 303.753 41.362 303.575 41.054 303.454C40.746 303.333 40.3307 303.202 39.808 303.062C39.164 302.894 38.646 302.726 38.254 302.558C37.8713 302.39 37.54 302.129 37.26 301.774C36.9893 301.41 36.854 300.925 36.854 300.318C36.854 299.786 36.9893 299.315 37.26 298.904C37.5307 298.493 37.9087 298.176 38.394 297.952C38.8887 297.728 39.4533 297.616 40.088 297.616C41.0027 297.616 41.7493 297.845 42.328 298.302C42.916 298.759 43.2473 299.366 43.322 300.122H41.922C41.8753 299.749 41.6793 299.422 41.334 299.142C40.9887 298.853 40.5313 298.708 39.962 298.708C39.43 298.708 38.996 298.848 38.66 299.128C38.324 299.399 38.156 299.781 38.156 300.276C38.156 300.631 38.254 300.92 38.45 301.144C38.6553 301.368 38.9027 301.541 39.192 301.662C39.4907 301.774 39.906 301.905 40.438 302.054C41.082 302.231 41.6 302.409 41.992 302.586C42.384 302.754 42.72 303.02 43 303.384C43.28 303.739 43.42 304.224 43.42 304.84C43.42 305.316 43.294 305.764 43.042 306.184C42.79 306.604 42.4167 306.945 41.922 307.206C41.4273 307.467 40.844 307.598 40.172 307.598ZM44.8188 303.65C44.8188 302.857 44.9775 302.166 45.2948 301.578C45.6121 300.981 46.0508 300.519 46.6108 300.192C47.1801 299.865 47.8288 299.702 48.5568 299.702C49.4995 299.702 50.2741 299.931 50.8808 300.388C51.4968 300.845 51.9028 301.48 52.0988 302.292H50.7268C50.5961 301.825 50.3395 301.457 49.9568 301.186C49.5835 300.915 49.1168 300.78 48.5568 300.78C47.8288 300.78 47.2408 301.032 46.7928 301.536C46.3448 302.031 46.1208 302.735 46.1208 303.65C46.1208 304.574 46.3448 305.288 46.7928 305.792C47.2408 306.296 47.8288 306.548 48.5568 306.548C49.1168 306.548 49.5835 306.417 49.9568 306.156C50.3301 305.895 50.5868 305.521 50.7268 305.036H52.0988C51.8935 305.82 51.4828 306.45 50.8668 306.926C50.2508 307.393 49.4808 307.626 48.5568 307.626C47.8288 307.626 47.1801 307.463 46.6108 307.136C46.0508 306.809 45.6121 306.347 45.2948 305.75C44.9775 305.153 44.8188 304.453 44.8188 303.65ZM57.6067 299.688C58.1854 299.688 58.708 299.814 59.1747 300.066C59.6414 300.309 60.0054 300.677 60.2667 301.172C60.5374 301.667 60.6727 302.269 60.6727 302.978V307.5H59.4127V303.16C59.4127 302.395 59.2214 301.811 58.8387 301.41C58.456 300.999 57.9334 300.794 57.2707 300.794C56.5987 300.794 56.062 301.004 55.6607 301.424C55.2687 301.844 55.0727 302.455 55.0727 303.258V307.5H53.7987V297.14H55.0727V300.92C55.3247 300.528 55.67 300.225 56.1087 300.01C56.5567 299.795 57.056 299.688 57.6067 299.688ZM66.0998 307.626C65.3811 307.626 64.7278 307.463 64.1398 307.136C63.5611 306.809 63.1038 306.347 62.7678 305.75C62.4411 305.143 62.2778 304.443 62.2778 303.65C62.2778 302.866 62.4458 302.175 62.7818 301.578C63.1271 300.971 63.5938 300.509 64.1818 300.192C64.7698 299.865 65.4278 299.702 66.1558 299.702C66.8838 299.702 67.5418 299.865 68.1298 300.192C68.7178 300.509 69.1798 300.967 69.5158 301.564C69.8611 302.161 70.0338 302.857 70.0338 303.65C70.0338 304.443 69.8564 305.143 69.5018 305.75C69.1564 306.347 68.6851 306.809 68.0878 307.136C67.4904 307.463 66.8278 307.626 66.0998 307.626ZM66.0998 306.506C66.5571 306.506 66.9864 306.399 67.3878 306.184C67.7891 305.969 68.1111 305.647 68.3538 305.218C68.6058 304.789 68.7318 304.266 68.7318 303.65C68.7318 303.034 68.6104 302.511 68.3678 302.082C68.1251 301.653 67.8078 301.335 67.4158 301.13C67.0238 300.915 66.5991 300.808 66.1418 300.808C65.6751 300.808 65.2458 300.915 64.8538 301.13C64.4711 301.335 64.1631 301.653 63.9298 302.082C63.6964 302.511 63.5798 303.034 63.5798 303.65C63.5798 304.275 63.6918 304.803 63.9158 305.232C64.1491 305.661 64.4571 305.983 64.8398 306.198C65.2224 306.403 65.6424 306.506 66.0998 306.506ZM75.0549 307.626C74.3362 307.626 73.6829 307.463 73.0949 307.136C72.5162 306.809 72.0589 306.347 71.7229 305.75C71.3962 305.143 71.2329 304.443 71.2329 303.65C71.2329 302.866 71.4009 302.175 71.7369 301.578C72.0822 300.971 72.5489 300.509 73.1369 300.192C73.7249 299.865 74.3829 299.702 75.1109 299.702C75.8389 299.702 76.4969 299.865 77.0849 300.192C77.6729 300.509 78.1349 300.967 78.4709 301.564C78.8162 302.161 78.9889 302.857 78.9889 303.65C78.9889 304.443 78.8115 305.143 78.4569 305.75C78.1115 306.347 77.6402 306.809 77.0429 307.136C76.4455 307.463 75.7829 307.626 75.0549 307.626ZM75.0549 306.506C75.5122 306.506 75.9415 306.399 76.3429 306.184C76.7442 305.969 77.0662 305.647 77.3089 305.218C77.5609 304.789 77.6869 304.266 77.6869 303.65C77.6869 303.034 77.5655 302.511 77.3229 302.082C77.0802 301.653 76.7629 301.335 76.3709 301.13C75.9789 300.915 75.5542 300.808 75.0969 300.808C74.6302 300.808 74.2009 300.915 73.8089 301.13C73.4262 301.335 73.1182 301.653 72.8849 302.082C72.6515 302.511 72.5349 303.034 72.5349 303.65C72.5349 304.275 72.6469 304.803 72.8709 305.232C73.1042 305.661 73.4122 305.983 73.7949 306.198C74.1775 306.403 74.5975 306.506 75.0549 306.506ZM81.9379 297.14V307.5H80.6639V297.14H81.9379ZM89.1157 298.778V302.04H92.6717V303.09H89.1157V306.45H93.0917V307.5H87.8417V297.728H93.0917V298.778H89.1157Z" fill="#777777"/>
<path d="M307.667 298.333V307.667H298.333V298.333H307.667ZM307.667 297H298.333C297.6 297 297 297.6 297 298.333V307.667C297 308.4 297.6 309 298.333 309H307.667C308.4 309 309 308.4 309 307.667V298.333C309 297.6 308.4 297 307.667 297Z" fill="#777777"/>
<path d="M18.6667 352.333L22 349L18.6667 345.667V352.333Z" fill="#777777"/>
<path d="M40.172 353.598C39.528 353.598 38.9493 353.486 38.436 353.262C37.932 353.029 37.5353 352.711 37.246 352.31C36.9567 351.899 36.8073 351.428 36.798 350.896H38.156C38.2027 351.353 38.3893 351.741 38.716 352.058C39.052 352.366 39.5373 352.52 40.172 352.52C40.7787 352.52 41.2547 352.371 41.6 352.072C41.9547 351.764 42.132 351.372 42.132 350.896C42.132 350.523 42.0293 350.219 41.824 349.986C41.6187 349.753 41.362 349.575 41.054 349.454C40.746 349.333 40.3307 349.202 39.808 349.062C39.164 348.894 38.646 348.726 38.254 348.558C37.8713 348.39 37.54 348.129 37.26 347.774C36.9893 347.41 36.854 346.925 36.854 346.318C36.854 345.786 36.9893 345.315 37.26 344.904C37.5307 344.493 37.9087 344.176 38.394 343.952C38.8887 343.728 39.4533 343.616 40.088 343.616C41.0027 343.616 41.7493 343.845 42.328 344.302C42.916 344.759 43.2473 345.366 43.322 346.122H41.922C41.8753 345.749 41.6793 345.422 41.334 345.142C40.9887 344.853 40.5313 344.708 39.962 344.708C39.43 344.708 38.996 344.848 38.66 345.128C38.324 345.399 38.156 345.781 38.156 346.276C38.156 346.631 38.254 346.92 38.45 347.144C38.6553 347.368 38.9027 347.541 39.192 347.662C39.4907 347.774 39.906 347.905 40.438 348.054C41.082 348.231 41.6 348.409 41.992 348.586C42.384 348.754 42.72 349.02 43 349.384C43.28 349.739 43.42 350.224 43.42 350.84C43.42 351.316 43.294 351.764 43.042 352.184C42.79 352.604 42.4167 352.945 41.922 353.206C41.4273 353.467 40.844 353.598 40.172 353.598ZM44.8188 349.65C44.8188 348.857 44.9775 348.166 45.2948 347.578C45.6121 346.981 46.0508 346.519 46.6108 346.192C47.1801 345.865 47.8288 345.702 48.5568 345.702C49.4995 345.702 50.2741 345.931 50.8808 346.388C51.4968 346.845 51.9028 347.48 52.0988 348.292H50.7268C50.5961 347.825 50.3395 347.457 49.9568 347.186C49.5835 346.915 49.1168 346.78 48.5568 346.78C47.8288 346.78 47.2408 347.032 46.7928 347.536C46.3448 348.031 46.1208 348.735 46.1208 349.65C46.1208 350.574 46.3448 351.288 46.7928 351.792C47.2408 352.296 47.8288 352.548 48.5568 352.548C49.1168 352.548 49.5835 352.417 49.9568 352.156C50.3301 351.895 50.5868 351.521 50.7268 351.036H52.0988C51.8935 351.82 51.4828 352.45 50.8668 352.926C50.2508 353.393 49.4808 353.626 48.5568 353.626C47.8288 353.626 47.1801 353.463 46.6108 353.136C46.0508 352.809 45.6121 352.347 45.2948 351.75C44.9775 351.153 44.8188 350.453 44.8188 349.65ZM57.6067 345.688C58.1854 345.688 58.708 345.814 59.1747 346.066C59.6414 346.309 60.0054 346.677 60.2667 347.172C60.5374 347.667 60.6727 348.269 60.6727 348.978V353.5H59.4127V349.16C59.4127 348.395 59.2214 347.811 58.8387 347.41C58.456 346.999 57.9334 346.794 57.2707 346.794C56.5987 346.794 56.062 347.004 55.6607 347.424C55.2687 347.844 55.0727 348.455 55.0727 349.258V353.5H53.7987V343.14H55.0727V346.92C55.3247 346.528 55.67 346.225 56.1087 346.01C56.5567 345.795 57.056 345.688 57.6067 345.688ZM66.0998 353.626C65.3811 353.626 64.7278 353.463 64.1398 353.136C63.5611 352.809 63.1038 352.347 62.7678 351.75C62.4411 351.143 62.2778 350.443 62.2778 349.65C62.2778 348.866 62.4458 348.175 62.7818 347.578C63.1271 346.971 63.5938 346.509 64.1818 346.192C64.7698 345.865 65.4278 345.702 66.1558 345.702C66.8838 345.702 67.5418 345.865 68.1298 346.192C68.7178 346.509 69.1798 346.967 69.5158 347.564C69.8611 348.161 70.0338 348.857 70.0338 349.65C70.0338 350.443 69.8564 351.143 69.5018 351.75C69.1564 352.347 68.6851 352.809 68.0878 353.136C67.4904 353.463 66.8278 353.626 66.0998 353.626ZM66.0998 352.506C66.5571 352.506 66.9864 352.399 67.3878 352.184C67.7891 351.969 68.1111 351.647 68.3538 351.218C68.6058 350.789 68.7318 350.266 68.7318 349.65C68.7318 349.034 68.6104 348.511 68.3678 348.082C68.1251 347.653 67.8078 347.335 67.4158 347.13C67.0238 346.915 66.5991 346.808 66.1418 346.808C65.6751 346.808 65.2458 346.915 64.8538 347.13C64.4711 347.335 64.1631 347.653 63.9298 348.082C63.6964 348.511 63.5798 349.034 63.5798 349.65C63.5798 350.275 63.6918 350.803 63.9158 351.232C64.1491 351.661 64.4571 351.983 64.8398 352.198C65.2224 352.403 65.6424 352.506 66.0998 352.506ZM75.0549 353.626C74.3362 353.626 73.6829 353.463 73.0949 353.136C72.5162 352.809 72.0589 352.347 71.7229 351.75C71.3962 351.143 71.2329 350.443 71.2329 349.65C71.2329 348.866 71.4009 348.175 71.7369 347.578C72.0822 346.971 72.5489 346.509 73.1369 346.192C73.7249 345.865 74.3829 345.702 75.1109 345.702C75.8389 345.702 76.4969 345.865 77.0849 346.192C77.6729 346.509 78.1349 346.967 78.4709 347.564C78.8162 348.161 78.9889 348.857 78.9889 349.65C78.9889 350.443 78.8115 351.143 78.4569 351.75C78.1115 352.347 77.6402 352.809 77.0429 353.136C76.4455 353.463 75.7829 353.626 75.0549 353.626ZM75.0549 352.506C75.5122 352.506 75.9415 352.399 76.3429 352.184C76.7442 351.969 77.0662 351.647 77.3089 351.218C77.5609 350.789 77.6869 350.266 77.6869 349.65C77.6869 349.034 77.5655 348.511 77.3229 348.082C77.0802 347.653 76.7629 347.335 76.3709 347.13C75.9789 346.915 75.5542 346.808 75.0969 346.808C74.6302 346.808 74.2009 346.915 73.8089 347.13C73.4262 347.335 73.1182 347.653 72.8849 348.082C72.6515 348.511 72.5349 349.034 72.5349 349.65C72.5349 350.275 72.6469 350.803 72.8709 351.232C73.1042 351.661 73.4122 351.983 73.7949 352.198C74.1775 352.403 74.5975 352.506 75.0549 352.506ZM81.9379 343.14V353.5H80.6639V343.14H81.9379ZM93.3577 343.742V344.778H89.1157V348.068H92.5597V349.104H89.1157V353.5H87.8417V343.742H93.3577Z" fill="#777777"/>
<path d="M307.667 344.333V353.667H298.333V344.333H307.667ZM307.667 343H298.333C297.6 343 297 343.6 297 344.333V353.667C297 354.4 297.6 355 298.333 355H307.667C308.4 355 309 354.4 309 353.667V344.333C309 343.6 308.4 343 307.667 343Z" fill="#777777"/>
<path d="M18.6667 398.333L22 395L18.6667 391.667V398.333Z" fill="#777777"/>
<path d="M40.172 399.598C39.528 399.598 38.9493 399.486 38.436 399.262C37.932 399.029 37.5353 398.711 37.246 398.31C36.9567 397.899 36.8073 397.428 36.798 396.896H38.156C38.2027 397.353 38.3893 397.741 38.716 398.058C39.052 398.366 39.5373 398.52 40.172 398.52C40.7787 398.52 41.2547 398.371 41.6 398.072C41.9547 397.764 42.132 397.372 42.132 396.896C42.132 396.523 42.0293 396.219 41.824 395.986C41.6187 395.753 41.362 395.575 41.054 395.454C40.746 395.333 40.3307 395.202 39.808 395.062C39.164 394.894 38.646 394.726 38.254 394.558C37.8713 394.39 37.54 394.129 37.26 393.774C36.9893 393.41 36.854 392.925 36.854 392.318C36.854 391.786 36.9893 391.315 37.26 390.904C37.5307 390.493 37.9087 390.176 38.394 389.952C38.8887 389.728 39.4533 389.616 40.088 389.616C41.0027 389.616 41.7493 389.845 42.328 390.302C42.916 390.759 43.2473 391.366 43.322 392.122H41.922C41.8753 391.749 41.6793 391.422 41.334 391.142C40.9887 390.853 40.5313 390.708 39.962 390.708C39.43 390.708 38.996 390.848 38.66 391.128C38.324 391.399 38.156 391.781 38.156 392.276C38.156 392.631 38.254 392.92 38.45 393.144C38.6553 393.368 38.9027 393.541 39.192 393.662C39.4907 393.774 39.906 393.905 40.438 394.054C41.082 394.231 41.6 394.409 41.992 394.586C42.384 394.754 42.72 395.02 43 395.384C43.28 395.739 43.42 396.224 43.42 396.84C43.42 397.316 43.294 397.764 43.042 398.184C42.79 398.604 42.4167 398.945 41.922 399.206C41.4273 399.467 40.844 399.598 40.172 399.598ZM44.8188 395.65C44.8188 394.857 44.9775 394.166 45.2948 393.578C45.6121 392.981 46.0508 392.519 46.6108 392.192C47.1801 391.865 47.8288 391.702 48.5568 391.702C49.4995 391.702 50.2741 391.931 50.8808 392.388C51.4968 392.845 51.9028 393.48 52.0988 394.292H50.7268C50.5961 393.825 50.3395 393.457 49.9568 393.186C49.5835 392.915 49.1168 392.78 48.5568 392.78C47.8288 392.78 47.2408 393.032 46.7928 393.536C46.3448 394.031 46.1208 394.735 46.1208 395.65C46.1208 396.574 46.3448 397.288 46.7928 397.792C47.2408 398.296 47.8288 398.548 48.5568 398.548C49.1168 398.548 49.5835 398.417 49.9568 398.156C50.3301 397.895 50.5868 397.521 50.7268 397.036H52.0988C51.8935 397.82 51.4828 398.45 50.8668 398.926C50.2508 399.393 49.4808 399.626 48.5568 399.626C47.8288 399.626 47.1801 399.463 46.6108 399.136C46.0508 398.809 45.6121 398.347 45.2948 397.75C44.9775 397.153 44.8188 396.453 44.8188 395.65ZM57.6067 391.688C58.1854 391.688 58.708 391.814 59.1747 392.066C59.6414 392.309 60.0054 392.677 60.2667 393.172C60.5374 393.667 60.6727 394.269 60.6727 394.978V399.5H59.4127V395.16C59.4127 394.395 59.2214 393.811 58.8387 393.41C58.456 392.999 57.9334 392.794 57.2707 392.794C56.5987 392.794 56.062 393.004 55.6607 393.424C55.2687 393.844 55.0727 394.455 55.0727 395.258V399.5H53.7987V389.14H55.0727V392.92C55.3247 392.528 55.67 392.225 56.1087 392.01C56.5567 391.795 57.056 391.688 57.6067 391.688ZM66.0998 399.626C65.3811 399.626 64.7278 399.463 64.1398 399.136C63.5611 398.809 63.1038 398.347 62.7678 397.75C62.4411 397.143 62.2778 396.443 62.2778 395.65C62.2778 394.866 62.4458 394.175 62.7818 393.578C63.1271 392.971 63.5938 392.509 64.1818 392.192C64.7698 391.865 65.4278 391.702 66.1558 391.702C66.8838 391.702 67.5418 391.865 68.1298 392.192C68.7178 392.509 69.1798 392.967 69.5158 393.564C69.8611 394.161 70.0338 394.857 70.0338 395.65C70.0338 396.443 69.8564 397.143 69.5018 397.75C69.1564 398.347 68.6851 398.809 68.0878 399.136C67.4904 399.463 66.8278 399.626 66.0998 399.626ZM66.0998 398.506C66.5571 398.506 66.9864 398.399 67.3878 398.184C67.7891 397.969 68.1111 397.647 68.3538 397.218C68.6058 396.789 68.7318 396.266 68.7318 395.65C68.7318 395.034 68.6104 394.511 68.3678 394.082C68.1251 393.653 67.8078 393.335 67.4158 393.13C67.0238 392.915 66.5991 392.808 66.1418 392.808C65.6751 392.808 65.2458 392.915 64.8538 393.13C64.4711 393.335 64.1631 393.653 63.9298 394.082C63.6964 394.511 63.5798 395.034 63.5798 395.65C63.5798 396.275 63.6918 396.803 63.9158 397.232C64.1491 397.661 64.4571 397.983 64.8398 398.198C65.2224 398.403 65.6424 398.506 66.0998 398.506ZM75.0549 399.626C74.3362 399.626 73.6829 399.463 73.0949 399.136C72.5162 398.809 72.0589 398.347 71.7229 397.75C71.3962 397.143 71.2329 396.443 71.2329 395.65C71.2329 394.866 71.4009 394.175 71.7369 393.578C72.0822 392.971 72.5489 392.509 73.1369 392.192C73.7249 391.865 74.3829 391.702 75.1109 391.702C75.8389 391.702 76.4969 391.865 77.0849 392.192C77.6729 392.509 78.1349 392.967 78.4709 393.564C78.8162 394.161 78.9889 394.857 78.9889 395.65C78.9889 396.443 78.8115 397.143 78.4569 397.75C78.1115 398.347 77.6402 398.809 77.0429 399.136C76.4455 399.463 75.7829 399.626 75.0549 399.626ZM75.0549 398.506C75.5122 398.506 75.9415 398.399 76.3429 398.184C76.7442 397.969 77.0662 397.647 77.3089 397.218C77.5609 396.789 77.6869 396.266 77.6869 395.65C77.6869 395.034 77.5655 394.511 77.3229 394.082C77.0802 393.653 76.7629 393.335 76.3709 393.13C75.9789 392.915 75.5542 392.808 75.0969 392.808C74.6302 392.808 74.2009 392.915 73.8089 393.13C73.4262 393.335 73.1182 393.653 72.8849 394.082C72.6515 394.511 72.5349 395.034 72.5349 395.65C72.5349 396.275 72.6469 396.803 72.8709 397.232C73.1042 397.661 73.4122 397.983 73.7949 398.198C74.1775 398.403 74.5975 398.506 75.0549 398.506ZM81.9379 389.14V399.5H80.6639V389.14H81.9379ZM95.2337 392.57C94.963 392.001 94.571 391.562 94.0577 391.254C93.5443 390.937 92.947 390.778 92.2657 390.778C91.5843 390.778 90.9683 390.937 90.4177 391.254C89.8763 391.562 89.447 392.01 89.1297 392.598C88.8217 393.177 88.6677 393.849 88.6677 394.614C88.6677 395.379 88.8217 396.051 89.1297 396.63C89.447 397.209 89.8763 397.657 90.4177 397.974C90.9683 398.282 91.5843 398.436 92.2657 398.436C93.2177 398.436 94.0017 398.151 94.6177 397.582C95.2337 397.013 95.593 396.243 95.6957 395.272H91.8037V394.236H97.0537V395.216C96.979 396.019 96.727 396.756 96.2977 397.428C95.8683 398.091 95.3037 398.618 94.6037 399.01C93.9037 399.393 93.1243 399.584 92.2657 399.584C91.3603 399.584 90.5343 399.374 89.7877 398.954C89.041 398.525 88.4483 397.932 88.0097 397.176C87.5803 396.42 87.3657 395.566 87.3657 394.614C87.3657 393.662 87.5803 392.808 88.0097 392.052C88.4483 391.287 89.041 390.694 89.7877 390.274C90.5343 389.845 91.3603 389.63 92.2657 389.63C93.3017 389.63 94.2163 389.887 95.0097 390.4C95.8123 390.913 96.3957 391.637 96.7597 392.57H95.2337Z" fill="#777777"/>
<path d="M307.667 390.333V399.667H298.333V390.333H307.667ZM307.667 389H298.333C297.6 389 297 389.6 297 390.333V399.667C297 400.4 297.6 401 298.333 401H307.667C308.4 401 309 400.4 309 399.667V390.333C309 389.6 308.4 389 307.667 389Z" fill="#777777"/>
</svg>
