<svg width="28" height="28" viewBox="0 0 28 28" fill="none" xmlns="http://www.w3.org/2000/svg">
<path opacity="0.3" d="M22.4933 10.0333L21.6767 8.62167L20.195 9.21667L18.9583 9.71834L17.8967 8.90167C17.4417 8.55167 16.9633 8.27167 16.4617 8.07334L15.225 7.57167L15.0383 6.25334L14.8167 4.66667H13.1833L12.9617 6.24167L12.775 7.56L11.5383 8.07334C11.06 8.27167 10.5817 8.55167 10.08 8.925L9.02999 9.71834L7.80499 9.22834L6.32332 8.62167L5.50665 10.0333L6.76665 11.0133L7.80499 11.83L7.64165 13.1483C7.60665 13.4983 7.58332 13.7667 7.58332 14C7.58332 14.2333 7.60665 14.5017 7.64165 14.8517L7.80499 16.17L6.76665 16.9867L5.50665 17.9667L6.32332 19.3783L7.80499 18.7833L9.04165 18.2817L10.1033 19.0983C10.5583 19.4483 11.0367 19.7283 11.5383 19.9267L12.775 20.4283L12.9617 21.7467L13.1833 23.3333H14.805L15.0267 21.7583L15.2133 20.44L16.45 19.9383C16.9283 19.74 17.4067 19.46 17.9083 19.0867L18.9583 18.2933L20.1717 18.7833L21.6533 19.3783L22.47 17.9667L21.21 16.9867L20.1717 16.17L20.335 14.8517C20.3817 14.49 20.3933 14.245 20.3933 14C20.3933 13.755 20.37 13.4983 20.335 13.1483L20.1717 11.83L21.21 11.0133L22.4933 10.0333ZM14 18.6667C11.4217 18.6667 9.33332 16.5783 9.33332 14C9.33332 11.4217 11.4217 9.33334 14 9.33334C16.5783 9.33334 18.6667 11.4217 18.6667 14C18.6667 16.5783 16.5783 18.6667 14 18.6667Z" fill="#B3BEC2"/>
<path d="M22.6683 15.1433C22.715 14.77 22.75 14.3967 22.75 14C22.75 13.6033 22.715 13.23 22.6683 12.8567L25.13 10.9317C25.3517 10.7567 25.41 10.4417 25.27 10.185L22.9367 6.14833C22.8317 5.96166 22.6333 5.85666 22.4233 5.85666C22.3533 5.85666 22.2833 5.86833 22.225 5.89166L19.32 7.05833C18.7133 6.59166 18.06 6.20666 17.3483 5.915L16.905 2.82333C16.87 2.54333 16.625 2.33333 16.3333 2.33333H11.6667C11.375 2.33333 11.13 2.54333 11.095 2.82333L10.6517 5.915C9.94 6.20666 9.28666 6.60333 8.68 7.05833L5.775 5.89166C5.705 5.86833 5.635 5.85666 5.565 5.85666C5.36666 5.85666 5.16833 5.96166 5.06333 6.14833L2.73 10.185C2.57833 10.4417 2.64833 10.7567 2.87 10.9317L5.33166 12.8567C5.285 13.23 5.25 13.615 5.25 14C5.25 14.385 5.285 14.77 5.33166 15.1433L2.87 17.0683C2.64833 17.2433 2.59 17.5583 2.73 17.815L5.06333 21.8517C5.16833 22.0383 5.36666 22.1433 5.57666 22.1433C5.64666 22.1433 5.71666 22.1317 5.775 22.1083L8.68 20.9417C9.28666 21.4083 9.94 21.7933 10.6517 22.085L11.095 25.1767C11.13 25.4567 11.375 25.6667 11.6667 25.6667H16.3333C16.625 25.6667 16.87 25.4567 16.905 25.1767L17.3483 22.085C18.06 21.7933 18.7133 21.3967 19.32 20.9417L22.225 22.1083C22.295 22.1317 22.365 22.1433 22.435 22.1433C22.6333 22.1433 22.8317 22.0383 22.9367 21.8517L25.27 17.815C25.41 17.5583 25.3517 17.2433 25.13 17.0683L22.6683 15.1433ZM20.3583 13.1483C20.405 13.51 20.4167 13.755 20.4167 14C20.4167 14.245 20.3933 14.5017 20.3583 14.8517L20.195 16.17L21.2333 16.9867L22.4933 17.9667L21.6767 19.3783L20.195 18.7833L18.9817 18.2933L17.9317 19.0867C17.43 19.46 16.9517 19.74 16.4733 19.9383L15.2367 20.44L15.05 21.7583L14.8167 23.3333H13.1833L12.9617 21.7583L12.775 20.44L11.5383 19.9383C11.0367 19.7283 10.57 19.46 10.1033 19.11L9.04166 18.2933L7.805 18.795L6.32333 19.39L5.50666 17.9783L6.76666 16.9983L7.805 16.1817L7.64166 14.8633C7.60666 14.5017 7.58333 14.2333 7.58333 14C7.58333 13.7667 7.60666 13.4983 7.64166 13.1483L7.805 11.83L6.76666 11.0133L5.50666 10.0333L6.32333 8.62166L7.805 9.21666L9.01833 9.70666L10.0683 8.91333C10.57 8.54 11.0483 8.25999 11.5267 8.06166L12.7633 7.56L12.95 6.24166L13.1833 4.66666H14.805L15.0267 6.24166L15.2133 7.56L16.45 8.06166C16.9517 8.27166 17.4183 8.54 17.885 8.89L18.9467 9.70666L20.1833 9.205L21.665 8.61L22.4817 10.0217L21.2333 11.0133L20.195 11.83L20.3583 13.1483ZM14 9.33333C11.4217 9.33333 9.33333 11.4217 9.33333 14C9.33333 16.5783 11.4217 18.6667 14 18.6667C16.5783 18.6667 18.6667 16.5783 18.6667 14C18.6667 11.4217 16.5783 9.33333 14 9.33333ZM14 16.3333C12.7167 16.3333 11.6667 15.2833 11.6667 14C11.6667 12.7167 12.7167 11.6667 14 11.6667C15.2833 11.6667 16.3333 12.7167 16.3333 14C16.3333 15.2833 15.2833 16.3333 14 16.3333Z" fill="#B3BEC2"/>
</svg>
