<svg width="28" height="28" viewBox="0 0 28 28" fill="none" xmlns="http://www.w3.org/2000/svg">
<path opacity="0.3" d="M16.5316 5.83334L22.1666 11.4683V22.1667H5.83331V5.83334H16.5316ZM8.16665 17.5H19.8333V19.8333H8.16665V17.5ZM8.16665 12.8333H19.8333V15.1667H8.16665V12.8333ZM8.16665 8.16668H16.3333V10.5H8.16665V8.16668Z" fill="#B3BEC2"/>
<path d="M16.5317 5.83333L22.1667 11.4683V22.1667H5.83333V5.83333H16.5317ZM16.5317 3.5H5.83333C4.55 3.5 3.5 4.55 3.5 5.83333V22.1667C3.5 23.45 4.55 24.5 5.83333 24.5H22.1667C23.45 24.5 24.5 23.45 24.5 22.1667V11.4683C24.5 10.85 24.255 10.255 23.8117 9.82333L18.1767 4.18833C17.745 3.745 17.15 3.5 16.5317 3.5ZM8.16667 17.5H19.8333V19.8333H8.16667V17.5ZM8.16667 12.8333H19.8333V15.1667H8.16667V12.8333ZM8.16667 8.16667H16.3333V10.5H8.16667V8.16667Z" fill="#B3BEC2"/>
</svg>
